<svg xmlns="http://www.w3.org/2000/svg" width="260" height="40" viewBox="0 0 260 40">
  <!-- Moon crescent using path -->
  <path d="M20,5 A15,15 0 1,1 20,35 A10,10 0 1,0 20,5" fill="#e8c170"/>

  <!-- Stars as simple paths -->
  <path d="M6,12 L7,9 L8,12 L11,12 L8.5,14 L9.5,17 L7,15 L4.5,17 L5.5,14 L3,12 Z" fill="#e8c170"/>
  <path d="M33,6 L34,4 L35,6 L37,6 L35.5,7.5 L36,10 L34,8.5 L32,10 L32.5,7.5 L31,6 Z" fill="#e8c170"/>

  <!-- Text -->
  <text x="50" y="27" font-family="Georgia, Times, serif" font-size="22" font-weight="normal" fill="#ffffff">The </text>
  <text x="90" y="27" font-family="Georgia, Times, serif" font-size="22" font-weight="normal" font-style="italic" fill="#e8c170">Empress </text>
  <text x="175" y="27" font-family="Georgia, Times, serif" font-size="22" font-weight="normal" fill="#ffffff">of </text>
  <text x="200" y="27" font-family="Georgia, Times, serif" font-size="22" font-weight="normal" font-style="italic" fill="#e8c170">Love</text>
</svg>
